<svg width="30" height="30" viewBox="0 0 30 30" fill="none" xmlns="http://www.w3.org/2000/svg">
<path d="M15 0C6.735 0 0 6.735 0 15C0 23.265 6.735 30 15 30C23.265 30 30 23.265 30 15C30 6.735 23.265 0 15 0ZM1.515 15C1.515 13.05 1.935 11.19 2.685 9.51L9.12 27.135C4.62 24.945 1.515 20.34 1.515 15ZM15 28.485C13.68 28.485 12.405 28.29 11.19 27.93L15.24 16.17L19.38 27.525C19.41 27.585 19.44 27.66 19.47 27.705C18.075 28.215 16.575 28.485 15 28.485ZM16.86 8.67C17.67 8.625 18.405 8.535 18.405 8.535C19.125 8.445 19.05 7.38 18.315 7.425C18.315 7.425 16.125 7.59 14.715 7.59C13.395 7.59 11.16 7.425 11.16 7.425C10.44 7.395 10.35 8.505 11.085 8.55C11.085 8.55 11.775 8.64 12.495 8.685L14.595 14.445L11.64 23.295L6.735 8.67C7.545 8.64 8.28 8.55 8.28 8.55C9 8.46 8.925 7.395 8.19 7.44C8.19 7.44 6 7.605 4.59 7.605C4.335 7.605 4.035 7.605 3.72 7.59C6.15 3.93 10.29 1.515 15 1.515C18.51 1.515 21.705 2.85 24.105 5.055C24.045 5.055 23.985 5.04 23.925 5.04C22.605 5.04 21.66 6.195 21.66 7.44C21.66 8.55 22.305 9.495 22.98 10.605C23.49 11.505 24.09 12.66 24.09 14.325C24.09 15.48 23.64 16.815 23.07 18.69L21.72 23.19L16.86 8.67V8.67ZM26.835 8.535C28.5198 11.6185 28.9343 15.2378 27.9901 18.6223C27.0459 22.0068 24.8177 24.889 21.78 26.655L25.905 14.745C26.67 12.825 26.925 11.28 26.925 9.915C26.925 9.42 26.895 8.955 26.835 8.535V8.535Z" fill="#334155" fill-opacity="0.89"/>
</svg>
